<?xml version="1.0" encoding="UTF-8"?>
<svg xmlns="http://www.w3.org/2000/svg" xmlns:xlink="http://www.w3.org/1999/xlink" width="576" height="396" viewBox="0 0 576 396">
<defs>
<g>
<g id="glyph-0-0">
<path d="M 0.390625 0 L 0.390625 -8.609375 L 7.21875 -8.609375 L 7.21875 0 Z M 6.140625 -1.078125 L 6.140625 -7.53125 L 1.46875 -7.53125 L 1.46875 -1.078125 Z M 6.140625 -1.078125 "/>
</g>
<g id="glyph-0-1">
<path d="M 1.15625 -5.9375 L 1.15625 -6.75 C 1.914062 -6.820312 2.441406 -6.945312 2.734375 -7.125 C 3.035156 -7.300781 3.265625 -7.710938 3.421875 -8.359375 L 4.25 -8.359375 L 4.25 0 L 3.125 0 L 3.125 -5.9375 Z M 1.15625 -5.9375 "/>
</g>
<g id="glyph-0-2">
<path d="M 0.375 0 C 0.414062 -0.71875 0.566406 -1.34375 0.828125 -1.875 C 1.085938 -2.414062 1.59375 -2.90625 2.34375 -3.34375 L 3.46875 -4 C 3.96875 -4.289062 4.320312 -4.539062 4.53125 -4.75 C 4.851562 -5.070312 5.015625 -5.441406 5.015625 -5.859375 C 5.015625 -6.347656 4.863281 -6.734375 4.5625 -7.015625 C 4.269531 -7.304688 3.882812 -7.453125 3.40625 -7.453125 C 2.675781 -7.453125 2.175781 -7.179688 1.90625 -6.640625 C 1.75 -6.335938 1.664062 -5.929688 1.65625 -5.421875 L 0.578125 -5.421875 C 0.585938 -6.148438 0.722656 -6.742188 0.984375 -7.203125 C 1.441406 -8.015625 2.25 -8.421875 3.40625 -8.421875 C 4.363281 -8.421875 5.0625 -8.160156 5.5 -7.640625 C 5.945312 -7.117188 6.171875 -6.539062 6.171875 -5.90625 C 6.171875 -5.238281 5.9375 -4.664062 5.46875 -4.1875 C 5.195312 -3.90625 4.707031 -3.566406 4 -3.171875 L 3.1875 -2.734375 C 2.8125 -2.523438 2.515625 -2.320312 2.296875 -2.125 C 1.898438 -1.789062 1.648438 -1.414062 1.546875 -1 L 6.140625 -1 L 6.140625 0 Z M 0.375 0 "/>
</g>
<g id="glyph-0-3">
<path d="M 3.125 0.234375 C 2.125 0.234375 1.398438 -0.0351562 0.953125 -0.578125 C 0.503906 -1.128906 0.28125 -1.796875 0.28125 -2.578125 L 1.390625 -2.578125 C 1.429688 -2.035156 1.53125 -1.640625 1.6875 -1.390625 C 1.96875 -0.953125 2.460938 -0.734375 3.171875 -0.734375 C 3.734375 -0.734375 4.179688 -0.878906 4.515625 -1.171875 C 4.847656 -1.472656 5.015625 -1.859375 5.015625 -2.328125 C 5.015625 -2.898438 4.835938 -3.300781 4.484375 -3.53125 C 4.128906 -3.769531 3.640625 -3.890625 3.015625 -3.890625 C 2.941406 -3.890625 2.867188 -3.882812 2.796875 -3.875 C 2.722656 -3.875 2.648438 -3.875 2.578125 -3.875 L 2.578125 -4.8125 C 2.691406 -4.789062 2.785156 -4.78125 2.859375 -4.78125 C 2.929688 -4.78125 3.007812 -4.78125 3.09375 -4.78125 C 3.488281 -4.78125 3.8125 -4.84375 4.0625 -4.96875 C 4.507812 -5.1875 4.734375 -5.578125 4.734375 -6.140625 C 4.734375 -6.554688 4.582031 -6.875 4.28125 -7.09375 C 3.988281 -7.320312 3.644531 -7.4375 3.25 -7.4375 C 2.550781 -7.4375 2.066406 -7.203125 1.796875 -6.734375 C 1.648438 -6.484375 1.566406 -6.117188 1.546875 -5.640625 L 0.5 -5.640625 C 0.5 -6.265625 0.625 -6.796875 0.875 -7.234375 C 1.300781 -8.015625 2.054688 -8.40625 3.140625 -8.40625 C 3.992188 -8.40625 4.65625 -8.210938 5.125 -7.828125 C 5.59375 -7.453125 5.828125 -6.898438 5.828125 -6.171875 C 5.828125 -5.660156 5.691406 -5.242188 5.421875 -4.921875 C 5.242188 -4.722656 5.019531 -4.566406 4.75 -4.453125 C 5.1875 -4.328125 5.53125 -4.09375 5.78125 -3.75 C 6.03125 -3.40625 6.15625 -2.984375 6.15625 -2.484375 C 6.15625 -1.679688 5.890625 -1.023438 5.359375 -0.515625 C 4.835938 -0.015625 4.09375 0.234375 3.125 0.234375 Z M 3.125 0.234375 "/>
</g>
<g id="glyph-0-4">
<path d="M 3.96875 -2.96875 L 3.96875 -6.78125 L 1.28125 -2.96875 Z M 3.984375 0 L 3.984375 -2.046875 L 0.3125 -2.046875 L 0.3125 -3.078125 L 4.15625 -8.421875 L 5.046875 -8.421875 L 5.046875 -2.96875 L 6.28125 -2.96875 L 6.28125 -2.046875 L 5.046875 -2.046875 L 5.046875 0 Z M 3.984375 0 "/>
</g>
<g id="glyph-0-5">
<path d="M 1.484375 -2.140625 C 1.554688 -1.535156 1.835938 -1.117188 2.328125 -0.890625 C 2.578125 -0.773438 2.863281 -0.71875 3.1875 -0.71875 C 3.8125 -0.71875 4.273438 -0.914062 4.578125 -1.3125 C 4.878906 -1.707031 5.03125 -2.148438 5.03125 -2.640625 C 5.03125 -3.222656 4.847656 -3.675781 4.484375 -4 C 4.128906 -4.320312 3.703125 -4.484375 3.203125 -4.484375 C 2.835938 -4.484375 2.523438 -4.410156 2.265625 -4.265625 C 2.003906 -4.128906 1.785156 -3.9375 1.609375 -3.6875 L 0.6875 -3.734375 L 1.328125 -8.25 L 5.6875 -8.25 L 5.6875 -7.234375 L 2.125 -7.234375 L 1.765625 -4.90625 C 1.960938 -5.050781 2.148438 -5.160156 2.328125 -5.234375 C 2.640625 -5.359375 3 -5.421875 3.40625 -5.421875 C 4.175781 -5.421875 4.828125 -5.171875 5.359375 -4.671875 C 5.898438 -4.179688 6.171875 -3.554688 6.171875 -2.796875 C 6.171875 -2.003906 5.921875 -1.300781 5.421875 -0.6875 C 4.929688 -0.0820312 4.148438 0.21875 3.078125 0.21875 C 2.398438 0.21875 1.796875 0.0234375 1.265625 -0.359375 C 0.742188 -0.742188 0.453125 -1.335938 0.390625 -2.140625 Z M 1.484375 -2.140625 "/>
</g>
<g id="glyph-0-6">
<path d="M 3.515625 -8.421875 C 4.453125 -8.421875 5.101562 -8.175781 5.46875 -7.6875 C 5.84375 -7.207031 6.03125 -6.707031 6.03125 -6.1875 L 4.984375 -6.1875 C 4.921875 -6.519531 4.820312 -6.78125 4.6875 -6.96875 C 4.425781 -7.320312 4.039062 -7.5 3.53125 -7.5 C 2.9375 -7.5 2.460938 -7.222656 2.109375 -6.671875 C 1.765625 -6.128906 1.578125 -5.351562 1.546875 -4.34375 C 1.785156 -4.695312 2.085938 -4.960938 2.453125 -5.140625 C 2.785156 -5.296875 3.160156 -5.375 3.578125 -5.375 C 4.285156 -5.375 4.898438 -5.148438 5.421875 -4.703125 C 5.941406 -4.253906 6.203125 -3.582031 6.203125 -2.6875 C 6.203125 -1.925781 5.953125 -1.25 5.453125 -0.65625 C 4.960938 -0.0703125 4.257812 0.21875 3.34375 0.21875 C 2.550781 0.21875 1.867188 -0.078125 1.296875 -0.671875 C 0.734375 -1.273438 0.453125 -2.28125 0.453125 -3.6875 C 0.453125 -4.726562 0.578125 -5.613281 0.828125 -6.34375 C 1.316406 -7.726562 2.210938 -8.421875 3.515625 -8.421875 Z M 3.4375 -0.71875 C 3.988281 -0.71875 4.398438 -0.90625 4.671875 -1.28125 C 4.953125 -1.65625 5.09375 -2.097656 5.09375 -2.609375 C 5.09375 -3.035156 4.96875 -3.441406 4.71875 -3.828125 C 4.476562 -4.210938 4.03125 -4.40625 3.375 -4.40625 C 2.925781 -4.40625 2.53125 -4.253906 2.1875 -3.953125 C 1.84375 -3.660156 1.671875 -3.210938 1.671875 -2.609375 C 1.671875 -2.078125 1.828125 -1.628906 2.140625 -1.265625 C 2.453125 -0.898438 2.882812 -0.71875 3.4375 -0.71875 Z M 3.4375 -0.71875 "/>
</g>
<g id="glyph-0-7">
<path d="M 6.28125 -8.25 L 6.28125 -7.328125 C 6.007812 -7.066406 5.648438 -6.613281 5.203125 -5.96875 C 4.753906 -5.320312 4.359375 -4.625 4.015625 -3.875 C 3.671875 -3.132812 3.410156 -2.46875 3.234375 -1.875 C 3.128906 -1.488281 2.984375 -0.863281 2.796875 0 L 1.640625 0 C 1.898438 -1.601562 2.484375 -3.195312 3.390625 -4.78125 C 3.929688 -5.707031 4.492188 -6.507812 5.078125 -7.1875 L 0.4375 -7.1875 L 0.4375 -8.25 Z M 6.28125 -8.25 "/>
</g>
<g id="glyph-0-8">
<path d="M 3.25 -8.390625 C 4.332031 -8.390625 5.117188 -7.941406 5.609375 -7.046875 C 5.984375 -6.359375 6.171875 -5.410156 6.171875 -4.203125 C 6.171875 -3.066406 6 -2.125 5.65625 -1.375 C 5.164062 -0.300781 4.359375 0.234375 3.234375 0.234375 C 2.234375 0.234375 1.484375 -0.203125 0.984375 -1.078125 C 0.578125 -1.816406 0.375 -2.800781 0.375 -4.03125 C 0.375 -4.976562 0.5 -5.796875 0.75 -6.484375 C 1.207031 -7.753906 2.039062 -8.390625 3.25 -8.390625 Z M 3.234375 -0.734375 C 3.785156 -0.734375 4.222656 -0.972656 4.546875 -1.453125 C 4.867188 -1.941406 5.03125 -2.847656 5.03125 -4.171875 C 5.03125 -5.117188 4.910156 -5.898438 4.671875 -6.515625 C 4.441406 -7.128906 3.988281 -7.4375 3.3125 -7.4375 C 2.6875 -7.4375 2.226562 -7.144531 1.9375 -6.5625 C 1.65625 -5.976562 1.515625 -5.117188 1.515625 -3.984375 C 1.515625 -3.128906 1.609375 -2.441406 1.796875 -1.921875 C 2.078125 -1.128906 2.554688 -0.734375 3.234375 -0.734375 Z M 3.234375 -0.734375 "/>
</g>
<g id="glyph-0-9">
<path d="M 1.03125 -1.28125 L 2.25 -1.28125 L 2.25 0 L 1.03125 0 Z M 1.03125 -1.28125 "/>
</g>
<g id="glyph-0-10">
<path d="M 3.265625 -4.875 C 3.734375 -4.875 4.097656 -5.003906 4.359375 -5.265625 C 4.617188 -5.523438 4.75 -5.832031 4.75 -6.1875 C 4.75 -6.5 4.625 -6.785156 4.375 -7.046875 C 4.125 -7.316406 3.742188 -7.453125 3.234375 -7.453125 C 2.722656 -7.453125 2.351562 -7.316406 2.125 -7.046875 C 1.894531 -6.785156 1.78125 -6.484375 1.78125 -6.140625 C 1.78125 -5.742188 1.925781 -5.429688 2.21875 -5.203125 C 2.519531 -4.984375 2.867188 -4.875 3.265625 -4.875 Z M 3.328125 -0.71875 C 3.816406 -0.71875 4.222656 -0.847656 4.546875 -1.109375 C 4.867188 -1.378906 5.03125 -1.773438 5.03125 -2.296875 C 5.03125 -2.835938 4.863281 -3.25 4.53125 -3.53125 C 4.195312 -3.8125 3.769531 -3.953125 3.25 -3.953125 C 2.75 -3.953125 2.335938 -3.804688 2.015625 -3.515625 C 1.703125 -3.234375 1.546875 -2.835938 1.546875 -2.328125 C 1.546875 -1.890625 1.691406 -1.507812 1.984375 -1.1875 C 2.273438 -0.875 2.722656 -0.71875 3.328125 -0.71875 Z M 1.828125 -4.46875 C 1.535156 -4.59375 1.304688 -4.738281 1.140625 -4.90625 C 0.835938 -5.21875 0.6875 -5.625 0.6875 -6.125 C 0.6875 -6.75 0.910156 -7.285156 1.359375 -7.734375 C 1.816406 -8.191406 2.457031 -8.421875 3.28125 -8.421875 C 4.09375 -8.421875 4.722656 -8.207031 5.171875 -7.78125 C 5.628906 -7.351562 5.859375 -6.859375 5.859375 -6.296875 C 5.859375 -5.773438 5.726562 -5.347656 5.46875 -5.015625 C 5.320312 -4.835938 5.09375 -4.660156 4.78125 -4.484375 C 5.125 -4.328125 5.394531 -4.144531 5.59375 -3.9375 C 5.96875 -3.539062 6.15625 -3.03125 6.15625 -2.40625 C 6.15625 -1.664062 5.90625 -1.039062 5.40625 -0.53125 C 4.914062 -0.0195312 4.21875 0.234375 3.3125 0.234375 C 2.488281 0.234375 1.796875 0.0117188 1.234375 -0.421875 C 0.671875 -0.867188 0.390625 -1.515625 0.390625 -2.359375 C 0.390625 -2.847656 0.507812 -3.273438 0.75 -3.640625 C 0.988281 -4.003906 1.347656 -4.28125 1.828125 -4.46875 Z M 1.828125 -4.46875 "/>
</g>
<g id="glyph-1-0">
<path d="M 1.078125 -10.375 L 9.4375 -10.375 L 9.4375 0 L 1.078125 0 Z M 8.140625 -1.296875 L 8.140625 -9.078125 L 2.375 -9.078125 L 2.375 -1.296875 Z M 8.140625 -1.296875 "/>
</g>
<g id="glyph-1-1">
<path d="M 4.859375 -1.5 C 5.367188 -1.5 5.785156 -1.554688 6.109375 -1.671875 C 6.710938 -1.878906 7.015625 -2.28125 7.015625 -2.875 C 7.015625 -3.21875 6.863281 -3.484375 6.5625 -3.671875 C 6.257812 -3.847656 5.789062 -4.007812 5.15625 -4.15625 L 4.046875 -4.390625 C 2.972656 -4.640625 2.226562 -4.90625 1.8125 -5.1875 C 1.113281 -5.664062 0.765625 -6.414062 0.765625 -7.4375 C 0.765625 -8.363281 1.101562 -9.132812 1.78125 -9.75 C 2.457031 -10.363281 3.445312 -10.671875 4.75 -10.671875 C 5.84375 -10.671875 6.773438 -10.378906 7.546875 -9.796875 C 8.316406 -9.222656 8.722656 -8.382812 8.765625 -7.28125 L 6.6875 -7.28125 C 6.644531 -7.90625 6.367188 -8.347656 5.859375 -8.609375 C 5.523438 -8.785156 5.109375 -8.875 4.609375 -8.875 C 4.046875 -8.875 3.597656 -8.757812 3.265625 -8.53125 C 2.929688 -8.300781 2.765625 -7.988281 2.765625 -7.59375 C 2.765625 -7.21875 2.929688 -6.941406 3.265625 -6.765625 C 3.472656 -6.640625 3.921875 -6.492188 4.609375 -6.328125 L 6.40625 -5.90625 C 7.1875 -5.71875 7.773438 -5.46875 8.171875 -5.15625 C 8.796875 -4.664062 9.109375 -3.957031 9.109375 -3.03125 C 9.109375 -2.082031 8.742188 -1.296875 8.015625 -0.671875 C 7.285156 -0.046875 6.257812 0.265625 4.9375 0.265625 C 3.59375 0.265625 2.53125 -0.0390625 1.75 -0.65625 C 0.976562 -1.269531 0.59375 -2.117188 0.59375 -3.203125 L 2.671875 -3.203125 C 2.734375 -2.722656 2.859375 -2.367188 3.046875 -2.140625 C 3.398438 -1.710938 4.003906 -1.5 4.859375 -1.5 Z M 4.859375 -1.5 "/>
</g>
<g id="glyph-1-2">
<path d="M 3 -7.671875 L 3 0 L 0.96875 0 L 0.96875 -7.671875 Z M 3 -10.4375 L 3 -8.578125 L 0.96875 -8.578125 L 0.96875 -10.4375 Z M 3 -10.4375 "/>
</g>
<g id="glyph-1-3">
<path d="M 5.234375 -5.5625 C 5.066406 -5.925781 4.738281 -6.109375 4.25 -6.109375 C 3.675781 -6.109375 3.289062 -5.925781 3.09375 -5.5625 C 2.988281 -5.34375 2.9375 -5.023438 2.9375 -4.609375 L 2.9375 0 L 0.90625 0 L 0.90625 -7.65625 L 2.84375 -7.65625 L 2.84375 -6.53125 C 3.09375 -6.925781 3.328125 -7.210938 3.546875 -7.390625 C 3.941406 -7.691406 4.445312 -7.84375 5.0625 -7.84375 C 5.644531 -7.84375 6.117188 -7.710938 6.484375 -7.453125 C 6.773438 -7.210938 6.992188 -6.90625 7.140625 -6.53125 C 7.410156 -6.976562 7.738281 -7.304688 8.125 -7.515625 C 8.539062 -7.734375 9 -7.84375 9.5 -7.84375 C 9.84375 -7.84375 10.175781 -7.773438 10.5 -7.640625 C 10.832031 -7.503906 11.128906 -7.273438 11.390625 -6.953125 C 11.609375 -6.679688 11.753906 -6.351562 11.828125 -5.96875 C 11.878906 -5.707031 11.90625 -5.328125 11.90625 -4.828125 L 11.890625 0 L 9.828125 0 L 9.828125 -4.875 C 9.828125 -5.164062 9.78125 -5.40625 9.6875 -5.59375 C 9.507812 -5.957031 9.179688 -6.140625 8.703125 -6.140625 C 8.148438 -6.140625 7.769531 -5.90625 7.5625 -5.4375 C 7.457031 -5.195312 7.40625 -4.90625 7.40625 -4.5625 L 7.40625 0 L 5.375 0 L 5.375 -4.5625 C 5.375 -5.019531 5.328125 -5.351562 5.234375 -5.5625 Z M 5.234375 -5.5625 "/>
</g>
<g id="glyph-1-4">
<path d="M 0.984375 -10.375 L 2.984375 -10.375 L 2.984375 0 L 0.984375 0 Z M 0.984375 -10.375 "/>
</g>
<g id="glyph-1-5">
<path d="M 1.21875 -6.84375 C 1.75 -7.507812 2.660156 -7.84375 3.953125 -7.84375 C 4.796875 -7.84375 5.539062 -7.675781 6.1875 -7.34375 C 6.84375 -7.007812 7.171875 -6.382812 7.171875 -5.46875 L 7.171875 -1.953125 C 7.171875 -1.703125 7.175781 -1.40625 7.1875 -1.0625 C 7.195312 -0.800781 7.234375 -0.625 7.296875 -0.53125 C 7.367188 -0.4375 7.46875 -0.359375 7.59375 -0.296875 L 7.59375 0 L 5.421875 0 C 5.359375 -0.15625 5.3125 -0.300781 5.28125 -0.4375 C 5.257812 -0.570312 5.242188 -0.726562 5.234375 -0.90625 C 4.953125 -0.601562 4.632812 -0.347656 4.28125 -0.140625 C 3.84375 0.105469 3.351562 0.234375 2.8125 0.234375 C 2.113281 0.234375 1.539062 0.0351562 1.09375 -0.359375 C 0.644531 -0.753906 0.421875 -1.316406 0.421875 -2.046875 C 0.421875 -2.984375 0.78125 -3.664062 1.5 -4.09375 C 1.90625 -4.320312 2.492188 -4.484375 3.265625 -4.578125 L 3.953125 -4.65625 C 4.316406 -4.707031 4.578125 -4.769531 4.734375 -4.84375 C 5.023438 -4.957031 5.171875 -5.144531 5.171875 -5.40625 C 5.171875 -5.71875 5.0625 -5.929688 4.84375 -6.046875 C 4.625 -6.171875 4.304688 -6.234375 3.890625 -6.234375 C 3.410156 -6.234375 3.070312 -6.117188 2.875 -5.890625 C 2.738281 -5.710938 2.644531 -5.476562 2.59375 -5.1875 L 0.65625 -5.1875 C 0.695312 -5.851562 0.882812 -6.40625 1.21875 -6.84375 Z M 2.71875 -1.453125 C 2.90625 -1.296875 3.132812 -1.21875 3.40625 -1.21875 C 3.832031 -1.21875 4.226562 -1.34375 4.59375 -1.59375 C 4.957031 -1.851562 5.144531 -2.316406 5.15625 -2.984375 L 5.15625 -3.734375 C 5.03125 -3.648438 4.90625 -3.582031 4.78125 -3.53125 C 4.65625 -3.476562 4.476562 -3.429688 4.25 -3.390625 L 3.796875 -3.3125 C 3.378906 -3.238281 3.078125 -3.144531 2.890625 -3.03125 C 2.578125 -2.851562 2.421875 -2.570312 2.421875 -2.1875 C 2.421875 -1.84375 2.519531 -1.597656 2.71875 -1.453125 Z M 2.71875 -1.453125 "/>
</g>
<g id="glyph-1-6">
<path d="M 4.796875 -5.8125 C 3.984375 -5.8125 3.441406 -5.550781 3.171875 -5.03125 C 3.015625 -4.738281 2.9375 -4.285156 2.9375 -3.671875 L 2.9375 0 L 0.921875 0 L 0.921875 -7.671875 L 2.828125 -7.671875 L 2.828125 -6.328125 C 3.140625 -6.835938 3.410156 -7.1875 3.640625 -7.375 C 4.015625 -7.6875 4.5 -7.84375 5.09375 -7.84375 C 5.132812 -7.84375 5.164062 -7.84375 5.1875 -7.84375 C 5.21875 -7.84375 5.273438 -7.84375 5.359375 -7.84375 L 5.359375 -5.78125 C 5.234375 -5.789062 5.117188 -5.796875 5.015625 -5.796875 C 4.921875 -5.804688 4.847656 -5.8125 4.796875 -5.8125 Z M 4.796875 -5.8125 "/>
</g>
<g id="glyph-1-7">
<path d="M 4.453125 -1.421875 L 4.453125 0.078125 L 3.5 0.109375 C 2.550781 0.140625 1.898438 -0.0234375 1.546875 -0.390625 C 1.328125 -0.617188 1.21875 -0.972656 1.21875 -1.453125 L 1.21875 -6.171875 L 0.140625 -6.171875 L 0.140625 -7.59375 L 1.21875 -7.59375 L 1.21875 -9.734375 L 3.203125 -9.734375 L 3.203125 -7.59375 L 4.453125 -7.59375 L 4.453125 -6.171875 L 3.203125 -6.171875 L 3.203125 -2.125 C 3.203125 -1.800781 3.238281 -1.597656 3.3125 -1.515625 C 3.394531 -1.441406 3.640625 -1.40625 4.046875 -1.40625 C 4.109375 -1.40625 4.171875 -1.40625 4.234375 -1.40625 C 4.304688 -1.414062 4.378906 -1.421875 4.453125 -1.421875 Z M 4.453125 -1.421875 "/>
</g>
<g id="glyph-1-8">
<path d="M 4.046875 -2.015625 L 5.640625 -7.671875 L 7.765625 -7.671875 L 5.140625 -0.125 C 4.628906 1.320312 4.222656 2.222656 3.921875 2.578125 C 3.628906 2.929688 3.039062 3.109375 2.15625 3.109375 C 1.976562 3.109375 1.832031 3.101562 1.71875 3.09375 C 1.613281 3.09375 1.457031 3.085938 1.25 3.078125 L 1.25 1.46875 L 1.5 1.484375 C 1.695312 1.492188 1.882812 1.484375 2.0625 1.453125 C 2.238281 1.429688 2.390625 1.378906 2.515625 1.296875 C 2.628906 1.222656 2.734375 1.054688 2.828125 0.796875 C 2.929688 0.546875 2.976562 0.394531 2.96875 0.34375 L 0.140625 -7.671875 L 2.375 -7.671875 Z M 4.046875 -2.015625 "/>
</g>
<g id="glyph-1-9">
</g>
<g id="glyph-1-10">
<path d="M 7.328125 -6.703125 C 7.972656 -5.890625 8.296875 -4.925781 8.296875 -3.8125 C 8.296875 -2.6875 7.972656 -1.722656 7.328125 -0.921875 C 6.679688 -0.128906 5.695312 0.265625 4.375 0.265625 C 3.0625 0.265625 2.082031 -0.128906 1.4375 -0.921875 C 0.789062 -1.722656 0.46875 -2.6875 0.46875 -3.8125 C 0.46875 -4.925781 0.789062 -5.882812 1.4375 -6.6875 C 2.082031 -7.5 3.0625 -7.90625 4.375 -7.90625 C 5.695312 -7.90625 6.679688 -7.503906 7.328125 -6.703125 Z M 4.375 -6.21875 C 3.789062 -6.21875 3.335938 -6.007812 3.015625 -5.59375 C 2.703125 -5.175781 2.546875 -4.582031 2.546875 -3.8125 C 2.546875 -3.050781 2.703125 -2.457031 3.015625 -2.03125 C 3.335938 -1.613281 3.789062 -1.40625 4.375 -1.40625 C 4.957031 -1.40625 5.40625 -1.613281 5.71875 -2.03125 C 6.039062 -2.457031 6.203125 -3.050781 6.203125 -3.8125 C 6.203125 -4.582031 6.039062 -5.175781 5.71875 -5.59375 C 5.40625 -6.007812 4.957031 -6.21875 4.375 -6.21875 Z M 4.375 -6.21875 "/>
</g>
<g id="glyph-1-11">
<path d="M 4.53125 -10.4375 L 4.53125 -8.796875 C 4.414062 -8.816406 4.222656 -8.828125 3.953125 -8.828125 C 3.691406 -8.835938 3.507812 -8.78125 3.40625 -8.65625 C 3.3125 -8.53125 3.265625 -8.394531 3.265625 -8.25 L 3.265625 -7.59375 L 4.578125 -7.59375 L 4.578125 -6.1875 L 3.265625 -6.1875 L 3.265625 0 L 1.265625 0 L 1.265625 -6.1875 L 0.140625 -6.1875 L 0.140625 -7.59375 L 1.25 -7.59375 L 1.25 -8.09375 C 1.25 -8.914062 1.382812 -9.476562 1.65625 -9.78125 C 1.945312 -10.238281 2.648438 -10.46875 3.765625 -10.46875 C 3.890625 -10.46875 4.003906 -10.460938 4.109375 -10.453125 C 4.210938 -10.453125 4.351562 -10.445312 4.53125 -10.4375 Z M 4.53125 -10.4375 "/>
</g>
<g id="glyph-1-12">
<path d="M 7.28125 0 L 7.28125 -4.625 L 3.234375 -4.625 L 3.234375 0 L 1.078125 0 L 1.078125 -10.375 L 3.234375 -10.375 L 3.234375 -6.421875 L 7.28125 -6.421875 L 7.28125 -10.375 L 9.4375 -10.375 L 9.4375 0 Z M 7.28125 0 "/>
</g>
<g id="glyph-1-13">
<path d="M 7.5 -2.25 C 7.445312 -1.789062 7.207031 -1.328125 6.78125 -0.859375 C 6.125 -0.117188 5.207031 0.25 4.03125 0.25 C 3.050781 0.25 2.1875 -0.0625 1.4375 -0.6875 C 0.695312 -1.3125 0.328125 -2.332031 0.328125 -3.75 C 0.328125 -5.082031 0.660156 -6.101562 1.328125 -6.8125 C 2.003906 -7.519531 2.878906 -7.875 3.953125 -7.875 C 4.597656 -7.875 5.175781 -7.753906 5.6875 -7.515625 C 6.195312 -7.273438 6.617188 -6.894531 6.953125 -6.375 C 7.253906 -5.925781 7.445312 -5.398438 7.53125 -4.796875 C 7.582031 -4.441406 7.601562 -3.9375 7.59375 -3.28125 L 2.34375 -3.28125 C 2.375 -2.507812 2.617188 -1.96875 3.078125 -1.65625 C 3.347656 -1.46875 3.679688 -1.375 4.078125 -1.375 C 4.484375 -1.375 4.816406 -1.488281 5.078125 -1.71875 C 5.222656 -1.84375 5.347656 -2.019531 5.453125 -2.25 Z M 5.515625 -4.59375 C 5.484375 -5.125 5.320312 -5.523438 5.03125 -5.796875 C 4.738281 -6.078125 4.378906 -6.21875 3.953125 -6.21875 C 3.492188 -6.21875 3.132812 -6.070312 2.875 -5.78125 C 2.625 -5.488281 2.46875 -5.09375 2.40625 -4.59375 Z M 5.515625 -4.59375 "/>
</g>
<g id="glyph-1-14">
<path d="M 7.5625 -4.921875 L 5.515625 -4.921875 C 5.472656 -5.203125 5.375 -5.457031 5.21875 -5.6875 C 5 -6 4.648438 -6.15625 4.171875 -6.15625 C 3.503906 -6.15625 3.046875 -5.820312 2.796875 -5.15625 C 2.660156 -4.789062 2.59375 -4.316406 2.59375 -3.734375 C 2.59375 -3.171875 2.660156 -2.71875 2.796875 -2.375 C 3.035156 -1.726562 3.484375 -1.40625 4.140625 -1.40625 C 4.609375 -1.40625 4.941406 -1.53125 5.140625 -1.78125 C 5.335938 -2.039062 5.457031 -2.375 5.5 -2.78125 L 7.546875 -2.78125 C 7.503906 -2.164062 7.285156 -1.585938 6.890625 -1.046875 C 6.253906 -0.171875 5.320312 0.265625 4.09375 0.265625 C 2.863281 0.265625 1.957031 -0.0976562 1.375 -0.828125 C 0.789062 -1.554688 0.5 -2.503906 0.5 -3.671875 C 0.5 -4.992188 0.816406 -6.019531 1.453125 -6.75 C 2.097656 -7.476562 2.988281 -7.84375 4.125 -7.84375 C 5.082031 -7.84375 5.867188 -7.628906 6.484375 -7.203125 C 7.097656 -6.773438 7.457031 -6.015625 7.5625 -4.921875 Z M 7.5625 -4.921875 "/>
</g>
<g id="glyph-1-15">
<path d="M 7.859375 -4.5 L 7.859375 0 L 5.8125 0 L 5.8125 -4.65625 C 5.8125 -5.070312 5.742188 -5.40625 5.609375 -5.65625 C 5.421875 -6.019531 5.070312 -6.203125 4.5625 -6.203125 C 4.03125 -6.203125 3.628906 -6.023438 3.359375 -5.671875 C 3.085938 -5.316406 2.953125 -4.8125 2.953125 -4.15625 L 2.953125 0 L 0.953125 0 L 0.953125 -10.328125 L 2.953125 -10.328125 L 2.953125 -6.671875 C 3.242188 -7.117188 3.578125 -7.425781 3.953125 -7.59375 C 4.335938 -7.769531 4.738281 -7.859375 5.15625 -7.859375 C 5.632812 -7.859375 6.066406 -7.773438 6.453125 -7.609375 C 6.835938 -7.453125 7.15625 -7.203125 7.40625 -6.859375 C 7.613281 -6.578125 7.738281 -6.285156 7.78125 -5.984375 C 7.832031 -5.679688 7.859375 -5.1875 7.859375 -4.5 Z M 7.859375 -4.5 "/>
</g>
<g id="glyph-1-16">
<path d="M 8.40625 -0.78125 C 7.632812 -0.0703125 6.644531 0.28125 5.4375 0.28125 C 3.945312 0.28125 2.773438 -0.191406 1.921875 -1.140625 C 1.066406 -2.109375 0.640625 -3.425781 0.640625 -5.09375 C 0.640625 -6.90625 1.128906 -8.300781 2.109375 -9.28125 C 2.953125 -10.132812 4.023438 -10.5625 5.328125 -10.5625 C 7.066406 -10.5625 8.34375 -9.988281 9.15625 -8.84375 C 9.59375 -8.207031 9.832031 -7.566406 9.875 -6.921875 L 7.703125 -6.921875 C 7.554688 -7.410156 7.375 -7.785156 7.15625 -8.046875 C 6.757812 -8.492188 6.175781 -8.71875 5.40625 -8.71875 C 4.625 -8.71875 4.003906 -8.398438 3.546875 -7.765625 C 3.085938 -7.128906 2.859375 -6.226562 2.859375 -5.0625 C 2.859375 -3.894531 3.097656 -3.019531 3.578125 -2.4375 C 4.066406 -1.863281 4.679688 -1.578125 5.421875 -1.578125 C 6.179688 -1.578125 6.757812 -1.828125 7.15625 -2.328125 C 7.375 -2.597656 7.554688 -3 7.703125 -3.53125 L 9.84375 -3.53125 C 9.65625 -2.40625 9.175781 -1.488281 8.40625 -0.78125 Z M 8.40625 -0.78125 "/>
</g>
<g id="glyph-1-17">
<path d="M 5.859375 -1.078125 C 5.835938 -1.054688 5.785156 -0.988281 5.703125 -0.875 C 5.628906 -0.757812 5.539062 -0.65625 5.4375 -0.5625 C 5.125 -0.28125 4.820312 -0.0859375 4.53125 0.015625 C 4.238281 0.117188 3.894531 0.171875 3.5 0.171875 C 2.363281 0.171875 1.597656 -0.238281 1.203125 -1.0625 C 0.984375 -1.507812 0.875 -2.171875 0.875 -3.046875 L 0.875 -7.671875 L 2.9375 -7.671875 L 2.9375 -3.046875 C 2.9375 -2.609375 2.988281 -2.28125 3.09375 -2.0625 C 3.269531 -1.675781 3.628906 -1.484375 4.171875 -1.484375 C 4.847656 -1.484375 5.316406 -1.757812 5.578125 -2.3125 C 5.703125 -2.601562 5.765625 -3 5.765625 -3.5 L 5.765625 -7.671875 L 7.796875 -7.671875 L 7.796875 0 L 5.859375 0 Z M 5.859375 -1.078125 "/>
</g>
<g id="glyph-1-18">
<path d="M 6.21875 -7.3125 C 6.820312 -6.925781 7.164062 -6.265625 7.25 -5.328125 L 5.25 -5.328125 C 5.21875 -5.585938 5.144531 -5.789062 5.03125 -5.9375 C 4.8125 -6.21875 4.4375 -6.359375 3.90625 -6.359375 C 3.46875 -6.359375 3.15625 -6.285156 2.96875 -6.140625 C 2.78125 -6.003906 2.6875 -5.847656 2.6875 -5.671875 C 2.6875 -5.441406 2.785156 -5.273438 2.984375 -5.171875 C 3.179688 -5.066406 3.878906 -4.878906 5.078125 -4.609375 C 5.878906 -4.421875 6.476562 -4.140625 6.875 -3.765625 C 7.269531 -3.378906 7.46875 -2.898438 7.46875 -2.328125 C 7.46875 -1.566406 7.179688 -0.941406 6.609375 -0.453125 C 6.046875 0.0234375 5.175781 0.265625 4 0.265625 C 2.789062 0.265625 1.898438 0.0078125 1.328125 -0.5 C 0.753906 -1.007812 0.46875 -1.660156 0.46875 -2.453125 L 2.5 -2.453125 C 2.539062 -2.085938 2.628906 -1.832031 2.765625 -1.6875 C 3.015625 -1.414062 3.476562 -1.28125 4.15625 -1.28125 C 4.539062 -1.28125 4.847656 -1.335938 5.078125 -1.453125 C 5.316406 -1.578125 5.4375 -1.753906 5.4375 -1.984375 C 5.4375 -2.210938 5.34375 -2.382812 5.15625 -2.5 C 4.96875 -2.625 4.269531 -2.828125 3.0625 -3.109375 C 2.195312 -3.328125 1.585938 -3.597656 1.234375 -3.921875 C 0.878906 -4.234375 0.703125 -4.691406 0.703125 -5.296875 C 0.703125 -6.003906 0.976562 -6.613281 1.53125 -7.125 C 2.082031 -7.632812 2.863281 -7.890625 3.875 -7.890625 C 4.832031 -7.890625 5.613281 -7.695312 6.21875 -7.3125 Z M 6.21875 -7.3125 "/>
</g>
<g id="glyph-1-19">
<path d="M 4.546875 -6.1875 C 3.867188 -6.1875 3.398438 -5.894531 3.140625 -5.3125 C 3.015625 -5.007812 2.953125 -4.625 2.953125 -4.15625 L 2.953125 0 L 0.953125 0 L 0.953125 -7.65625 L 2.890625 -7.65625 L 2.890625 -6.53125 C 3.140625 -6.925781 3.378906 -7.210938 3.609375 -7.390625 C 4.023438 -7.691406 4.550781 -7.84375 5.1875 -7.84375 C 5.976562 -7.84375 6.625 -7.632812 7.125 -7.21875 C 7.632812 -6.8125 7.890625 -6.125 7.890625 -5.15625 L 7.890625 0 L 5.828125 0 L 5.828125 -4.65625 C 5.828125 -5.0625 5.773438 -5.375 5.671875 -5.59375 C 5.472656 -5.988281 5.097656 -6.1875 4.546875 -6.1875 Z M 4.546875 -6.1875 "/>
</g>
<g id="glyph-1-20">
<path d="M 3.109375 1.34375 C 3.316406 1.53125 3.675781 1.625 4.1875 1.625 C 4.914062 1.625 5.398438 1.378906 5.640625 0.890625 C 5.796875 0.578125 5.875 0.0546875 5.875 -0.671875 L 5.875 -1.15625 C 5.6875 -0.832031 5.484375 -0.585938 5.265625 -0.421875 C 4.859375 -0.117188 4.335938 0.03125 3.703125 0.03125 C 2.722656 0.03125 1.9375 -0.3125 1.34375 -1 C 0.757812 -1.695312 0.46875 -2.632812 0.46875 -3.8125 C 0.46875 -4.945312 0.75 -5.898438 1.3125 -6.671875 C 1.882812 -7.453125 2.691406 -7.84375 3.734375 -7.84375 C 4.117188 -7.84375 4.453125 -7.785156 4.734375 -7.671875 C 5.222656 -7.472656 5.617188 -7.101562 5.921875 -6.5625 L 5.921875 -7.671875 L 7.859375 -7.671875 L 7.859375 -0.390625 C 7.859375 0.597656 7.691406 1.34375 7.359375 1.84375 C 6.785156 2.707031 5.691406 3.140625 4.078125 3.140625 C 3.097656 3.140625 2.296875 2.945312 1.671875 2.5625 C 1.054688 2.175781 0.710938 1.601562 0.640625 0.84375 L 2.828125 0.84375 C 2.878906 1.070312 2.972656 1.238281 3.109375 1.34375 Z M 2.765625 -2.609375 C 3.035156 -1.960938 3.523438 -1.640625 4.234375 -1.640625 C 4.703125 -1.640625 5.097656 -1.816406 5.421875 -2.171875 C 5.742188 -2.523438 5.90625 -3.09375 5.90625 -3.875 C 5.90625 -4.59375 5.75 -5.140625 5.4375 -5.515625 C 5.132812 -5.898438 4.722656 -6.09375 4.203125 -6.09375 C 3.503906 -6.09375 3.019531 -5.765625 2.75 -5.109375 C 2.613281 -4.753906 2.546875 -4.320312 2.546875 -3.8125 C 2.546875 -3.363281 2.617188 -2.960938 2.765625 -2.609375 Z M 2.765625 -2.609375 "/>
</g>
<g id="glyph-1-21">
<path d="M 7.90625 -10.359375 L 7.90625 0 L 5.96875 0 L 5.96875 -1.0625 C 5.675781 -0.601562 5.347656 -0.269531 4.984375 -0.0625 C 4.617188 0.132812 4.164062 0.234375 3.625 0.234375 C 2.726562 0.234375 1.972656 -0.125 1.359375 -0.84375 C 0.742188 -1.570312 0.4375 -2.503906 0.4375 -3.640625 C 0.4375 -4.941406 0.738281 -5.96875 1.34375 -6.71875 C 1.945312 -7.46875 2.753906 -7.84375 3.765625 -7.84375 C 4.222656 -7.84375 4.632812 -7.738281 5 -7.53125 C 5.363281 -7.332031 5.65625 -7.054688 5.875 -6.703125 L 5.875 -10.359375 Z M 2.515625 -3.78125 C 2.515625 -3.070312 2.65625 -2.507812 2.9375 -2.09375 C 3.207031 -1.664062 3.628906 -1.453125 4.203125 -1.453125 C 4.765625 -1.453125 5.191406 -1.660156 5.484375 -2.078125 C 5.785156 -2.503906 5.9375 -3.050781 5.9375 -3.71875 C 5.9375 -4.65625 5.695312 -5.328125 5.21875 -5.734375 C 4.9375 -5.972656 4.601562 -6.09375 4.21875 -6.09375 C 3.625 -6.09375 3.191406 -5.867188 2.921875 -5.421875 C 2.648438 -4.984375 2.515625 -4.4375 2.515625 -3.78125 Z M 2.515625 -3.78125 "/>
</g>
<g id="glyph-1-22">
<path d="M 10.28125 0 L 7.5 0 L 4.296875 -4.53125 L 3.265625 -3.46875 L 3.265625 0 L 1.125 0 L 1.125 -10.375 L 3.265625 -10.375 L 3.265625 -6.09375 L 7.265625 -10.375 L 10.0625 -10.375 L 5.8125 -6.09375 Z M 10.28125 0 "/>
</g>
<g id="glyph-1-23">
<path d="M 0.328125 -4.96875 L 4.375 -4.96875 L 4.375 -3.0625 L 0.328125 -3.0625 Z M 0.328125 -4.96875 "/>
</g>
<g id="glyph-2-0">
<path d="M 0.90625 -8.640625 L 7.859375 -8.640625 L 7.859375 0 L 0.90625 0 Z M 6.78125 -1.078125 L 6.78125 -7.5625 L 1.984375 -7.5625 L 1.984375 -1.078125 Z M 6.78125 -1.078125 "/>
</g>
<g id="glyph-2-1">
<path d="M 7.90625 0 L 6.09375 0 L 2.5625 -6.140625 L 2.5625 0 L 0.890625 0 L 0.890625 -8.640625 L 2.78125 -8.640625 L 6.21875 -2.609375 L 6.21875 -8.640625 L 7.90625 -8.640625 Z M 7.90625 0 "/>
</g>
<g id="glyph-2-2">
<path d="M 4.875 -0.90625 C 4.863281 -0.882812 4.828125 -0.820312 4.765625 -0.71875 C 4.703125 -0.625 4.625 -0.539062 4.53125 -0.46875 C 4.269531 -0.238281 4.015625 -0.0820312 3.765625 0 C 3.523438 0.09375 3.242188 0.140625 2.921875 0.140625 C 1.972656 0.140625 1.335938 -0.195312 1.015625 -0.875 C 0.828125 -1.25 0.734375 -1.800781 0.734375 -2.53125 L 0.734375 -6.390625 L 2.4375 -6.390625 L 2.4375 -2.53125 C 2.4375 -2.175781 2.484375 -1.90625 2.578125 -1.71875 C 2.722656 -1.394531 3.019531 -1.234375 3.46875 -1.234375 C 4.039062 -1.234375 4.429688 -1.460938 4.640625 -1.921875 C 4.753906 -2.171875 4.8125 -2.5 4.8125 -2.90625 L 4.8125 -6.390625 L 6.5 -6.390625 L 6.5 0 L 4.875 0 Z M 4.875 -0.90625 "/>
</g>
<g id="glyph-2-3">
<path d="M 4.359375 -4.625 C 4.222656 -4.9375 3.953125 -5.09375 3.546875 -5.09375 C 3.066406 -5.09375 2.742188 -4.9375 2.578125 -4.625 C 2.484375 -4.445312 2.4375 -4.1875 2.4375 -3.84375 L 2.4375 0 L 0.75 0 L 0.75 -6.375 L 2.375 -6.375 L 2.375 -5.4375 C 2.582031 -5.769531 2.773438 -6.007812 2.953125 -6.15625 C 3.285156 -6.40625 3.707031 -6.53125 4.21875 -6.53125 C 4.707031 -6.53125 5.101562 -6.421875 5.40625 -6.203125 C 5.644531 -6.003906 5.828125 -5.75 5.953125 -5.4375 C 6.171875 -5.8125 6.441406 -6.085938 6.765625 -6.265625 C 7.109375 -6.441406 7.492188 -6.53125 7.921875 -6.53125 C 8.203125 -6.53125 8.476562 -6.472656 8.75 -6.359375 C 9.019531 -6.253906 9.269531 -6.066406 9.5 -5.796875 C 9.675781 -5.566406 9.796875 -5.289062 9.859375 -4.96875 C 9.898438 -4.75 9.921875 -4.4375 9.921875 -4.03125 L 9.90625 0 L 8.1875 0 L 8.1875 -4.0625 C 8.1875 -4.3125 8.148438 -4.515625 8.078125 -4.671875 C 7.929688 -4.960938 7.65625 -5.109375 7.25 -5.109375 C 6.789062 -5.109375 6.472656 -4.914062 6.296875 -4.53125 C 6.210938 -4.332031 6.171875 -4.085938 6.171875 -3.796875 L 6.171875 0 L 4.484375 0 L 4.484375 -3.796875 C 4.484375 -4.179688 4.441406 -4.457031 4.359375 -4.625 Z M 4.359375 -4.625 "/>
</g>
<g id="glyph-2-4">
<path d="M 4.25 0.171875 C 3.71875 0.171875 3.296875 0.0664062 2.984375 -0.140625 C 2.785156 -0.265625 2.578125 -0.484375 2.359375 -0.796875 L 2.359375 0 L 0.71875 0 L 0.71875 -8.625 L 2.390625 -8.625 L 2.390625 -5.5625 C 2.597656 -5.851562 2.828125 -6.078125 3.078125 -6.234375 C 3.378906 -6.429688 3.765625 -6.53125 4.234375 -6.53125 C 5.066406 -6.53125 5.722656 -6.226562 6.203125 -5.625 C 6.679688 -5.019531 6.921875 -4.238281 6.921875 -3.28125 C 6.921875 -2.28125 6.6875 -1.453125 6.21875 -0.796875 C 5.75 -0.148438 5.09375 0.171875 4.25 0.171875 Z M 5.15625 -3.09375 C 5.15625 -3.550781 5.097656 -3.925781 4.984375 -4.21875 C 4.765625 -4.78125 4.351562 -5.0625 3.75 -5.0625 C 3.144531 -5.0625 2.734375 -4.789062 2.515625 -4.25 C 2.390625 -3.945312 2.328125 -3.566406 2.328125 -3.109375 C 2.328125 -2.554688 2.445312 -2.097656 2.6875 -1.734375 C 2.9375 -1.378906 3.304688 -1.203125 3.796875 -1.203125 C 4.234375 -1.203125 4.566406 -1.375 4.796875 -1.71875 C 5.035156 -2.070312 5.15625 -2.53125 5.15625 -3.09375 Z M 5.15625 -3.09375 "/>
</g>
<g id="glyph-2-5">
<path d="M 6.25 -1.875 C 6.207031 -1.5 6.007812 -1.113281 5.65625 -0.71875 C 5.101562 -0.09375 4.335938 0.21875 3.359375 0.21875 C 2.546875 0.21875 1.828125 -0.0390625 1.203125 -0.5625 C 0.585938 -1.09375 0.28125 -1.945312 0.28125 -3.125 C 0.28125 -4.226562 0.554688 -5.078125 1.109375 -5.671875 C 1.671875 -6.265625 2.398438 -6.5625 3.296875 -6.5625 C 3.828125 -6.5625 4.304688 -6.457031 4.734375 -6.25 C 5.160156 -6.050781 5.515625 -5.738281 5.796875 -5.3125 C 6.046875 -4.9375 6.207031 -4.5 6.28125 -4 C 6.320312 -3.707031 6.335938 -3.285156 6.328125 -2.734375 L 1.953125 -2.734375 C 1.984375 -2.085938 2.1875 -1.640625 2.5625 -1.390625 C 2.789062 -1.222656 3.066406 -1.140625 3.390625 -1.140625 C 3.734375 -1.140625 4.015625 -1.238281 4.234375 -1.4375 C 4.347656 -1.539062 4.453125 -1.6875 4.546875 -1.875 Z M 4.59375 -3.828125 C 4.5625 -4.273438 4.425781 -4.613281 4.1875 -4.84375 C 3.945312 -5.070312 3.648438 -5.1875 3.296875 -5.1875 C 2.910156 -5.1875 2.609375 -5.0625 2.390625 -4.8125 C 2.179688 -4.570312 2.050781 -4.242188 2 -3.828125 Z M 4.59375 -3.828125 "/>
</g>
<g id="glyph-2-6">
<path d="M 3.984375 -4.84375 C 3.316406 -4.84375 2.867188 -4.625 2.640625 -4.1875 C 2.503906 -3.945312 2.4375 -3.566406 2.4375 -3.046875 L 2.4375 0 L 0.765625 0 L 0.765625 -6.390625 L 2.359375 -6.390625 L 2.359375 -5.28125 C 2.617188 -5.695312 2.84375 -5.984375 3.03125 -6.140625 C 3.34375 -6.410156 3.75 -6.546875 4.25 -6.546875 C 4.28125 -6.546875 4.304688 -6.539062 4.328125 -6.53125 C 4.347656 -6.53125 4.394531 -6.53125 4.46875 -6.53125 L 4.46875 -4.8125 C 4.363281 -4.820312 4.269531 -4.828125 4.1875 -4.828125 C 4.101562 -4.835938 4.035156 -4.84375 3.984375 -4.84375 Z M 3.984375 -4.84375 "/>
</g>
<g id="glyph-2-7">
</g>
<g id="glyph-2-8">
<path d="M 6.109375 -5.578125 C 6.648438 -4.898438 6.921875 -4.101562 6.921875 -3.1875 C 6.921875 -2.25 6.648438 -1.445312 6.109375 -0.78125 C 5.566406 -0.113281 4.75 0.21875 3.65625 0.21875 C 2.550781 0.21875 1.726562 -0.113281 1.1875 -0.78125 C 0.65625 -1.445312 0.390625 -2.25 0.390625 -3.1875 C 0.390625 -4.101562 0.65625 -4.898438 1.1875 -5.578125 C 1.726562 -6.253906 2.550781 -6.59375 3.65625 -6.59375 C 4.75 -6.59375 5.566406 -6.253906 6.109375 -5.578125 Z M 3.640625 -5.1875 C 3.148438 -5.1875 2.773438 -5.007812 2.515625 -4.65625 C 2.253906 -4.3125 2.125 -3.820312 2.125 -3.1875 C 2.125 -2.539062 2.253906 -2.039062 2.515625 -1.6875 C 2.773438 -1.34375 3.148438 -1.171875 3.640625 -1.171875 C 4.128906 -1.171875 4.503906 -1.34375 4.765625 -1.6875 C 5.023438 -2.039062 5.15625 -2.539062 5.15625 -3.1875 C 5.15625 -3.820312 5.023438 -4.3125 4.765625 -4.65625 C 4.503906 -5.007812 4.128906 -5.1875 3.640625 -5.1875 Z M 3.640625 -5.1875 "/>
</g>
<g id="glyph-2-9">
<path d="M 3.78125 -8.6875 L 3.78125 -7.328125 C 3.6875 -7.335938 3.523438 -7.34375 3.296875 -7.34375 C 3.078125 -7.351562 2.925781 -7.304688 2.84375 -7.203125 C 2.757812 -7.109375 2.71875 -7 2.71875 -6.875 L 2.71875 -6.328125 L 3.8125 -6.328125 L 3.8125 -5.15625 L 2.71875 -5.15625 L 2.71875 0 L 1.0625 0 L 1.0625 -5.15625 L 0.125 -5.15625 L 0.125 -6.328125 L 1.03125 -6.328125 L 1.03125 -6.734375 C 1.03125 -7.421875 1.148438 -7.894531 1.390625 -8.15625 C 1.628906 -8.53125 2.210938 -8.71875 3.140625 -8.71875 C 3.242188 -8.71875 3.335938 -8.710938 3.421875 -8.703125 C 3.503906 -8.703125 3.625 -8.695312 3.78125 -8.6875 Z M 3.78125 -8.6875 "/>
</g>
<g id="glyph-2-10">
<path d="M 6.3125 -4.09375 L 4.59375 -4.09375 C 4.5625 -4.332031 4.484375 -4.546875 4.359375 -4.734375 C 4.171875 -4.992188 3.878906 -5.125 3.484375 -5.125 C 2.921875 -5.125 2.535156 -4.847656 2.328125 -4.296875 C 2.210938 -3.992188 2.15625 -3.597656 2.15625 -3.109375 C 2.15625 -2.640625 2.210938 -2.257812 2.328125 -1.96875 C 2.523438 -1.4375 2.898438 -1.171875 3.453125 -1.171875 C 3.835938 -1.171875 4.113281 -1.273438 4.28125 -1.484375 C 4.445312 -1.703125 4.546875 -1.976562 4.578125 -2.3125 L 6.28125 -2.3125 C 6.25 -1.800781 6.066406 -1.320312 5.734375 -0.875 C 5.210938 -0.144531 4.4375 0.21875 3.40625 0.21875 C 2.382812 0.21875 1.628906 -0.0820312 1.140625 -0.6875 C 0.660156 -1.300781 0.421875 -2.09375 0.421875 -3.0625 C 0.421875 -4.164062 0.6875 -5.019531 1.21875 -5.625 C 1.75 -6.238281 2.488281 -6.546875 3.4375 -6.546875 C 4.238281 -6.546875 4.894531 -6.363281 5.40625 -6 C 5.914062 -5.644531 6.21875 -5.007812 6.3125 -4.09375 Z M 6.3125 -4.09375 "/>
</g>
<g id="glyph-2-11">
<path d="M 0.8125 -8.640625 L 2.484375 -8.640625 L 2.484375 0 L 0.8125 0 Z M 0.8125 -8.640625 "/>
</g>
<g id="glyph-2-12">
<path d="M 5.1875 -6.09375 C 5.6875 -5.769531 5.972656 -5.21875 6.046875 -4.4375 L 4.375 -4.4375 C 4.351562 -4.65625 4.289062 -4.828125 4.1875 -4.953125 C 4.007812 -5.179688 3.695312 -5.296875 3.25 -5.296875 C 2.882812 -5.296875 2.625 -5.238281 2.46875 -5.125 C 2.320312 -5.007812 2.25 -4.875 2.25 -4.71875 C 2.25 -4.53125 2.328125 -4.394531 2.484375 -4.3125 C 2.648438 -4.21875 3.234375 -4.0625 4.234375 -3.84375 C 4.898438 -3.6875 5.394531 -3.453125 5.71875 -3.140625 C 6.050781 -2.816406 6.21875 -2.414062 6.21875 -1.9375 C 6.21875 -1.300781 5.984375 -0.78125 5.515625 -0.375 C 5.046875 0.0195312 4.316406 0.21875 3.328125 0.21875 C 2.328125 0.21875 1.585938 0.00390625 1.109375 -0.421875 C 0.628906 -0.847656 0.390625 -1.390625 0.390625 -2.046875 L 2.078125 -2.046875 C 2.117188 -1.742188 2.195312 -1.53125 2.3125 -1.40625 C 2.519531 -1.1875 2.898438 -1.078125 3.453125 -1.078125 C 3.785156 -1.078125 4.046875 -1.125 4.234375 -1.21875 C 4.429688 -1.3125 4.53125 -1.457031 4.53125 -1.65625 C 4.53125 -1.84375 4.453125 -1.988281 4.296875 -2.09375 C 4.140625 -2.1875 3.5625 -2.351562 2.5625 -2.59375 C 1.832031 -2.769531 1.320312 -2.992188 1.03125 -3.265625 C 0.726562 -3.523438 0.578125 -3.90625 0.578125 -4.40625 C 0.578125 -5 0.804688 -5.503906 1.265625 -5.921875 C 1.734375 -6.347656 2.390625 -6.5625 3.234375 -6.5625 C 4.023438 -6.5625 4.675781 -6.40625 5.1875 -6.09375 Z M 5.1875 -6.09375 "/>
</g>
<g id="glyph-2-13">
<path d="M 3.703125 -1.1875 L 3.703125 0.0625 L 2.90625 0.09375 C 2.125 0.113281 1.585938 -0.0234375 1.296875 -0.328125 C 1.109375 -0.515625 1.015625 -0.804688 1.015625 -1.203125 L 1.015625 -5.140625 L 0.125 -5.140625 L 0.125 -6.328125 L 1.015625 -6.328125 L 1.015625 -8.109375 L 2.671875 -8.109375 L 2.671875 -6.328125 L 3.703125 -6.328125 L 3.703125 -5.140625 L 2.671875 -5.140625 L 2.671875 -1.765625 C 2.671875 -1.503906 2.703125 -1.335938 2.765625 -1.265625 C 2.828125 -1.203125 3.03125 -1.171875 3.375 -1.171875 C 3.425781 -1.171875 3.476562 -1.171875 3.53125 -1.171875 C 3.59375 -1.179688 3.648438 -1.1875 3.703125 -1.1875 Z M 3.703125 -1.1875 "/>
</g>
<g id="glyph-3-0">
<path d="M -8.640625 -0.90625 L -8.640625 -7.859375 L 0 -7.859375 L 0 -0.90625 Z M -1.078125 -6.78125 L -7.5625 -6.78125 L -7.5625 -1.984375 L -1.078125 -1.984375 Z M -1.078125 -6.78125 "/>
</g>
<g id="glyph-3-1">
<path d="M -3.390625 -4.578125 L -3.390625 -2.71875 L 0 -2.71875 L 0 -0.953125 L -8.640625 -0.953125 L -8.640625 -5.1875 C -8.628906 -5.789062 -8.550781 -6.253906 -8.40625 -6.578125 C -8.269531 -6.910156 -8.070312 -7.191406 -7.8125 -7.421875 C -7.59375 -7.609375 -7.347656 -7.753906 -7.078125 -7.859375 C -6.816406 -7.972656 -6.515625 -8.03125 -6.171875 -8.03125 C -5.765625 -8.03125 -5.363281 -7.925781 -4.96875 -7.71875 C -4.570312 -7.507812 -4.289062 -7.164062 -4.125 -6.6875 C -3.96875 -7.09375 -3.738281 -7.375 -3.4375 -7.53125 C -3.144531 -7.695312 -2.695312 -7.78125 -2.09375 -7.78125 L -1.515625 -7.78125 C -1.117188 -7.78125 -0.847656 -7.796875 -0.703125 -7.828125 C -0.484375 -7.878906 -0.320312 -7.988281 -0.21875 -8.15625 L 0 -8.15625 L 0 -6.171875 C -0.1875 -6.117188 -0.34375 -6.082031 -0.46875 -6.0625 C -0.707031 -6.007812 -0.953125 -5.984375 -1.203125 -5.984375 L -2.015625 -5.96875 C -2.566406 -5.957031 -2.929688 -5.851562 -3.109375 -5.65625 C -3.296875 -5.46875 -3.390625 -5.109375 -3.390625 -4.578125 Z M -4.953125 -5.671875 C -5.117188 -6.035156 -5.445312 -6.21875 -5.9375 -6.21875 C -6.457031 -6.21875 -6.804688 -6.046875 -6.984375 -5.703125 C -7.085938 -5.503906 -7.140625 -5.207031 -7.140625 -4.8125 L -7.140625 -2.71875 L -4.8125 -2.71875 L -4.8125 -4.765625 C -4.8125 -5.171875 -4.859375 -5.472656 -4.953125 -5.671875 Z M -4.953125 -5.671875 "/>
</g>
<g id="glyph-3-2">
<path d="M -5.703125 -1.015625 C -6.265625 -1.460938 -6.546875 -2.222656 -6.546875 -3.296875 C -6.546875 -3.992188 -6.40625 -4.613281 -6.125 -5.15625 C -5.84375 -5.695312 -5.316406 -5.96875 -4.546875 -5.96875 L -1.625 -5.96875 C -1.414062 -5.96875 -1.171875 -5.972656 -0.890625 -5.984375 C -0.671875 -5.992188 -0.519531 -6.023438 -0.4375 -6.078125 C -0.363281 -6.140625 -0.300781 -6.222656 -0.25 -6.328125 L 0 -6.328125 L 0 -4.515625 C -0.125 -4.460938 -0.242188 -4.425781 -0.359375 -4.40625 C -0.472656 -4.382812 -0.601562 -4.367188 -0.75 -4.359375 C -0.5 -4.128906 -0.285156 -3.863281 -0.109375 -3.5625 C 0.0976562 -3.207031 0.203125 -2.800781 0.203125 -2.34375 C 0.203125 -1.769531 0.0351562 -1.289062 -0.296875 -0.90625 C -0.628906 -0.53125 -1.097656 -0.34375 -1.703125 -0.34375 C -2.484375 -0.34375 -3.050781 -0.644531 -3.40625 -1.25 C -3.59375 -1.582031 -3.726562 -2.070312 -3.8125 -2.71875 L -3.890625 -3.28125 C -3.921875 -3.59375 -3.96875 -3.816406 -4.03125 -3.953125 C -4.132812 -4.191406 -4.289062 -4.3125 -4.5 -4.3125 C -4.769531 -4.3125 -4.953125 -4.21875 -5.046875 -4.03125 C -5.148438 -3.851562 -5.203125 -3.585938 -5.203125 -3.234375 C -5.203125 -2.835938 -5.101562 -2.554688 -4.90625 -2.390625 C -4.757812 -2.273438 -4.5625 -2.195312 -4.3125 -2.15625 L -4.3125 -0.546875 C -4.875 -0.585938 -5.335938 -0.742188 -5.703125 -1.015625 Z M -1.203125 -2.265625 C -1.078125 -2.421875 -1.015625 -2.613281 -1.015625 -2.84375 C -1.015625 -3.195312 -1.117188 -3.523438 -1.328125 -3.828125 C -1.535156 -4.128906 -1.921875 -4.285156 -2.484375 -4.296875 L -3.109375 -4.296875 C -3.035156 -4.191406 -2.976562 -4.085938 -2.9375 -3.984375 C -2.90625 -3.878906 -2.867188 -3.734375 -2.828125 -3.546875 L -2.765625 -3.171875 C -2.703125 -2.816406 -2.625 -2.5625 -2.53125 -2.40625 C -2.375 -2.144531 -2.140625 -2.015625 -1.828125 -2.015625 C -1.535156 -2.015625 -1.328125 -2.097656 -1.203125 -2.265625 Z M -1.203125 -2.265625 "/>
</g>
<g id="glyph-3-3">
<path d="M -5.15625 -3.78125 C -5.15625 -3.21875 -4.914062 -2.832031 -4.4375 -2.625 C -4.175781 -2.507812 -3.847656 -2.453125 -3.453125 -2.453125 L 0 -2.453125 L 0 -0.796875 L -6.375 -0.796875 L -6.375 -2.40625 L -5.4375 -2.40625 C -5.769531 -2.613281 -6.007812 -2.816406 -6.15625 -3.015625 C -6.414062 -3.359375 -6.546875 -3.789062 -6.546875 -4.3125 C -6.546875 -4.976562 -6.367188 -5.519531 -6.015625 -5.9375 C -5.671875 -6.351562 -5.097656 -6.5625 -4.296875 -6.5625 L 0 -6.5625 L 0 -4.859375 L -3.890625 -4.859375 C -4.222656 -4.859375 -4.476562 -4.8125 -4.65625 -4.71875 C -4.988281 -4.5625 -5.15625 -4.25 -5.15625 -3.78125 Z M -5.15625 -3.78125 "/>
</g>
<g id="glyph-3-4">
<path d="M -8.625 -6.59375 L 0 -6.59375 L 0 -4.96875 L -0.890625 -4.96875 C -0.503906 -4.726562 -0.222656 -4.457031 -0.046875 -4.15625 C 0.117188 -3.851562 0.203125 -3.472656 0.203125 -3.015625 C 0.203125 -2.273438 -0.0976562 -1.648438 -0.703125 -1.140625 C -1.304688 -0.628906 -2.082031 -0.375 -3.03125 -0.375 C -4.125 -0.375 -4.984375 -0.625 -5.609375 -1.125 C -6.234375 -1.625 -6.546875 -2.296875 -6.546875 -3.140625 C -6.546875 -3.523438 -6.457031 -3.867188 -6.28125 -4.171875 C -6.113281 -4.472656 -5.878906 -4.71875 -5.578125 -4.90625 L -8.625 -4.90625 Z M -3.15625 -2.09375 C -2.5625 -2.09375 -2.085938 -2.207031 -1.734375 -2.4375 C -1.378906 -2.675781 -1.203125 -3.03125 -1.203125 -3.5 C -1.203125 -3.96875 -1.378906 -4.328125 -1.734375 -4.578125 C -2.085938 -4.828125 -2.539062 -4.953125 -3.09375 -4.953125 C -3.875 -4.953125 -4.4375 -4.753906 -4.78125 -4.359375 C -4.976562 -4.109375 -5.078125 -3.828125 -5.078125 -3.515625 C -5.078125 -3.023438 -4.890625 -2.664062 -4.515625 -2.4375 C -4.148438 -2.207031 -3.695312 -2.09375 -3.15625 -2.09375 Z M -3.15625 -2.09375 "/>
</g>
<g id="glyph-3-5">
</g>
<g id="glyph-3-6">
<path d="M -8.640625 -0.78125 L -8.640625 -2.5625 L 0 -2.5625 L 0 -0.78125 Z M -8.640625 -0.78125 "/>
</g>
<g id="glyph-3-7">
<path d="M -1.875 -6.25 C -1.5 -6.207031 -1.113281 -6.007812 -0.71875 -5.65625 C -0.09375 -5.101562 0.21875 -4.335938 0.21875 -3.359375 C 0.21875 -2.546875 -0.0390625 -1.828125 -0.5625 -1.203125 C -1.09375 -0.585938 -1.945312 -0.28125 -3.125 -0.28125 C -4.226562 -0.28125 -5.078125 -0.554688 -5.671875 -1.109375 C -6.265625 -1.671875 -6.5625 -2.398438 -6.5625 -3.296875 C -6.5625 -3.828125 -6.457031 -4.304688 -6.25 -4.734375 C -6.050781 -5.160156 -5.738281 -5.515625 -5.3125 -5.796875 C -4.9375 -6.046875 -4.5 -6.207031 -4 -6.28125 C -3.707031 -6.320312 -3.285156 -6.335938 -2.734375 -6.328125 L -2.734375 -1.953125 C -2.085938 -1.984375 -1.640625 -2.1875 -1.390625 -2.5625 C -1.222656 -2.789062 -1.140625 -3.066406 -1.140625 -3.390625 C -1.140625 -3.734375 -1.238281 -4.015625 -1.4375 -4.234375 C -1.539062 -4.347656 -1.6875 -4.453125 -1.875 -4.546875 Z M -3.828125 -4.59375 C -4.273438 -4.5625 -4.613281 -4.425781 -4.84375 -4.1875 C -5.070312 -3.945312 -5.1875 -3.648438 -5.1875 -3.296875 C -5.1875 -2.910156 -5.0625 -2.609375 -4.8125 -2.390625 C -4.570312 -2.179688 -4.242188 -2.050781 -3.828125 -2 Z M -3.828125 -4.59375 "/>
</g>
<g id="glyph-3-8">
<path d="M 0 -6.46875 L 0 -4.390625 L -1.921875 -3.28125 L 0 -2.1875 L 0 -0.15625 L -3.234375 -2.328125 L -6.375 -0.25 L -6.375 -2.296875 L -4.53125 -3.359375 L -6.375 -4.40625 L -6.375 -6.390625 L -3.265625 -4.296875 Z M 0 -6.46875 "/>
</g>
</g>
</defs>
<rect x="-57.6" y="-39.6" width="691.2" height="475.2" fill="rgb(100%, 100%, 100%)" fill-opacity="1"/>
<path fill-rule="nonzero" fill="rgb(74.509804%, 74.509804%, 74.509804%)" fill-opacity="1" stroke-width="0.75" stroke-linecap="round" stroke-linejoin="round" stroke="rgb(0%, 0%, 0%)" stroke-opacity="1" stroke-miterlimit="10" d="M 59.039062 322.558594 L 118.394531 322.558594 L 118.394531 59.039062 L 59.039062 59.039062 Z M 59.039062 322.558594 "/>
<path fill-rule="nonzero" fill="rgb(74.509804%, 74.509804%, 74.509804%)" fill-opacity="1" stroke-width="0.75" stroke-linecap="round" stroke-linejoin="round" stroke="rgb(0%, 0%, 0%)" stroke-opacity="1" stroke-miterlimit="10" d="M 130.265625 322.558594 L 189.621094 322.558594 L 189.621094 59.039062 L 130.265625 59.039062 Z M 130.265625 322.558594 "/>
<path fill-rule="nonzero" fill="rgb(74.509804%, 74.509804%, 74.509804%)" fill-opacity="1" stroke-width="0.75" stroke-linecap="round" stroke-linejoin="round" stroke="rgb(0%, 0%, 0%)" stroke-opacity="1" stroke-miterlimit="10" d="M 201.496094 322.558594 L 260.851562 322.558594 L 260.851562 59.039062 L 201.496094 59.039062 Z M 201.496094 322.558594 "/>
<path fill-rule="nonzero" fill="rgb(74.509804%, 74.509804%, 74.509804%)" fill-opacity="1" stroke-width="0.75" stroke-linecap="round" stroke-linejoin="round" stroke="rgb(0%, 0%, 0%)" stroke-opacity="1" stroke-miterlimit="10" d="M 272.722656 322.558594 L 332.078125 322.558594 L 332.078125 59.039062 L 272.722656 59.039062 Z M 272.722656 322.558594 "/>
<path fill-rule="nonzero" fill="rgb(74.509804%, 74.509804%, 74.509804%)" fill-opacity="1" stroke-width="0.75" stroke-linecap="round" stroke-linejoin="round" stroke="rgb(0%, 0%, 0%)" stroke-opacity="1" stroke-miterlimit="10" d="M 343.949219 322.558594 L 403.304688 322.558594 L 403.304688 81.660156 L 343.949219 81.660156 Z M 343.949219 322.558594 "/>
<path fill-rule="nonzero" fill="rgb(74.509804%, 74.509804%, 74.509804%)" fill-opacity="1" stroke-width="0.75" stroke-linecap="round" stroke-linejoin="round" stroke="rgb(0%, 0%, 0%)" stroke-opacity="1" stroke-miterlimit="10" d="M 415.175781 322.558594 L 474.53125 322.558594 L 474.53125 81.660156 L 415.175781 81.660156 Z M 415.175781 322.558594 "/>
<path fill-rule="nonzero" fill="rgb(74.509804%, 74.509804%, 74.509804%)" fill-opacity="1" stroke-width="0.75" stroke-linecap="round" stroke-linejoin="round" stroke="rgb(0%, 0%, 0%)" stroke-opacity="1" stroke-miterlimit="10" d="M 486.402344 322.558594 L 545.757812 322.558594 L 545.757812 85.785156 L 486.402344 85.785156 Z M 486.402344 322.558594 "/>
<g fill="rgb(0%, 0%, 0%)" fill-opacity="1">
<use xlink:href="#glyph-0-1" x="85.21875" y="347.720703"/>
</g>
<g fill="rgb(0%, 0%, 0%)" fill-opacity="1">
<use xlink:href="#glyph-0-2" x="156.445312" y="347.720703"/>
</g>
<g fill="rgb(0%, 0%, 0%)" fill-opacity="1">
<use xlink:href="#glyph-0-3" x="227.671875" y="347.720703"/>
</g>
<g fill="rgb(0%, 0%, 0%)" fill-opacity="1">
<use xlink:href="#glyph-0-4" x="298.898438" y="347.720703"/>
</g>
<g fill="rgb(0%, 0%, 0%)" fill-opacity="1">
<use xlink:href="#glyph-0-5" x="370.128906" y="347.720703"/>
</g>
<g fill="rgb(0%, 0%, 0%)" fill-opacity="1">
<use xlink:href="#glyph-0-6" x="441.355469" y="347.720703"/>
</g>
<g fill="rgb(0%, 0%, 0%)" fill-opacity="1">
<use xlink:href="#glyph-0-7" x="512.582031" y="347.720703"/>
</g>
<g fill="rgb(0%, 0%, 0%)" fill-opacity="1">
<use xlink:href="#glyph-1-1" x="93.398438" y="34.107422"/>
<use xlink:href="#glyph-1-2" x="103.398438" y="34.107422"/>
<use xlink:href="#glyph-1-3" x="107.398438" y="34.107422"/>
<use xlink:href="#glyph-1-2" x="120.398438" y="34.107422"/>
<use xlink:href="#glyph-1-4" x="124.398438" y="34.107422"/>
<use xlink:href="#glyph-1-5" x="128.398438" y="34.107422"/>
<use xlink:href="#glyph-1-6" x="136.398438" y="34.107422"/>
<use xlink:href="#glyph-1-2" x="142.398438" y="34.107422"/>
<use xlink:href="#glyph-1-7" x="146.398438" y="34.107422"/>
<use xlink:href="#glyph-1-8" x="151.398438" y="34.107422"/>
<use xlink:href="#glyph-1-9" x="159.398438" y="34.107422"/>
<use xlink:href="#glyph-1-10" x="163.398438" y="34.107422"/>
<use xlink:href="#glyph-1-11" x="172.398438" y="34.107422"/>
<use xlink:href="#glyph-1-9" x="177.398438" y="34.107422"/>
<use xlink:href="#glyph-1-12" x="181.398438" y="34.107422"/>
<use xlink:href="#glyph-1-2" x="191.398438" y="34.107422"/>
<use xlink:href="#glyph-1-13" x="195.398438" y="34.107422"/>
<use xlink:href="#glyph-1-6" x="203.398438" y="34.107422"/>
<use xlink:href="#glyph-1-5" x="209.398438" y="34.107422"/>
<use xlink:href="#glyph-1-6" x="217.398438" y="34.107422"/>
<use xlink:href="#glyph-1-14" x="223.398438" y="34.107422"/>
<use xlink:href="#glyph-1-15" x="231.398438" y="34.107422"/>
<use xlink:href="#glyph-1-2" x="240.398438" y="34.107422"/>
<use xlink:href="#glyph-1-14" x="244.398438" y="34.107422"/>
<use xlink:href="#glyph-1-5" x="252.398438" y="34.107422"/>
<use xlink:href="#glyph-1-4" x="260.398438" y="34.107422"/>
<use xlink:href="#glyph-1-9" x="264.398438" y="34.107422"/>
<use xlink:href="#glyph-1-16" x="268.398438" y="34.107422"/>
<use xlink:href="#glyph-1-4" x="278.398438" y="34.107422"/>
<use xlink:href="#glyph-1-17" x="282.398438" y="34.107422"/>
<use xlink:href="#glyph-1-18" x="291.398438" y="34.107422"/>
<use xlink:href="#glyph-1-7" x="299.398438" y="34.107422"/>
<use xlink:href="#glyph-1-13" x="304.398438" y="34.107422"/>
<use xlink:href="#glyph-1-6" x="312.398438" y="34.107422"/>
<use xlink:href="#glyph-1-2" x="318.398438" y="34.107422"/>
<use xlink:href="#glyph-1-19" x="322.398438" y="34.107422"/>
<use xlink:href="#glyph-1-20" x="331.398438" y="34.107422"/>
<use xlink:href="#glyph-1-9" x="340.398438" y="34.107422"/>
<use xlink:href="#glyph-1-5" x="344.398438" y="34.107422"/>
<use xlink:href="#glyph-1-19" x="352.398438" y="34.107422"/>
<use xlink:href="#glyph-1-21" x="361.398438" y="34.107422"/>
<use xlink:href="#glyph-1-9" x="370.398438" y="34.107422"/>
<use xlink:href="#glyph-1-22" x="374.398438" y="34.107422"/>
<use xlink:href="#glyph-1-23" x="384.398438" y="34.107422"/>
<use xlink:href="#glyph-1-3" x="389.398438" y="34.107422"/>
<use xlink:href="#glyph-1-13" x="402.398438" y="34.107422"/>
<use xlink:href="#glyph-1-5" x="410.398438" y="34.107422"/>
<use xlink:href="#glyph-1-19" x="418.398438" y="34.107422"/>
<use xlink:href="#glyph-1-18" x="427.398438" y="34.107422"/>
<use xlink:href="#glyph-1-9" x="435.398438" y="34.107422"/>
<use xlink:href="#glyph-1-16" x="439.398438" y="34.107422"/>
<use xlink:href="#glyph-1-4" x="449.398438" y="34.107422"/>
<use xlink:href="#glyph-1-17" x="453.398438" y="34.107422"/>
<use xlink:href="#glyph-1-18" x="462.398438" y="34.107422"/>
<use xlink:href="#glyph-1-7" x="470.398438" y="34.107422"/>
<use xlink:href="#glyph-1-13" x="475.398438" y="34.107422"/>
<use xlink:href="#glyph-1-6" x="483.398438" y="34.107422"/>
<use xlink:href="#glyph-1-2" x="489.398438" y="34.107422"/>
<use xlink:href="#glyph-1-19" x="493.398438" y="34.107422"/>
<use xlink:href="#glyph-1-20" x="502.398438" y="34.107422"/>
</g>
<g fill="rgb(0%, 0%, 0%)" fill-opacity="1">
<use xlink:href="#glyph-2-1" x="247.398438" y="376.521484"/>
<use xlink:href="#glyph-2-2" x="256.398438" y="376.521484"/>
<use xlink:href="#glyph-2-3" x="263.398438" y="376.521484"/>
<use xlink:href="#glyph-2-4" x="274.398438" y="376.521484"/>
<use xlink:href="#glyph-2-5" x="281.398438" y="376.521484"/>
<use xlink:href="#glyph-2-6" x="288.398438" y="376.521484"/>
<use xlink:href="#glyph-2-7" x="293.398438" y="376.521484"/>
<use xlink:href="#glyph-2-8" x="296.398438" y="376.521484"/>
<use xlink:href="#glyph-2-9" x="303.398438" y="376.521484"/>
<use xlink:href="#glyph-2-7" x="307.398438" y="376.521484"/>
<use xlink:href="#glyph-2-10" x="310.398438" y="376.521484"/>
<use xlink:href="#glyph-2-11" x="317.398438" y="376.521484"/>
<use xlink:href="#glyph-2-2" x="320.398438" y="376.521484"/>
<use xlink:href="#glyph-2-12" x="327.398438" y="376.521484"/>
<use xlink:href="#glyph-2-13" x="334.398438" y="376.521484"/>
<use xlink:href="#glyph-2-5" x="338.398438" y="376.521484"/>
<use xlink:href="#glyph-2-6" x="345.398438" y="376.521484"/>
<use xlink:href="#glyph-2-12" x="350.398438" y="376.521484"/>
</g>
<g fill="rgb(0%, 0%, 0%)" fill-opacity="1">
<use xlink:href="#glyph-3-1" x="12.201172" y="222.800781"/>
<use xlink:href="#glyph-3-2" x="12.201172" y="213.800781"/>
<use xlink:href="#glyph-3-3" x="12.201172" y="206.800781"/>
<use xlink:href="#glyph-3-4" x="12.201172" y="199.800781"/>
<use xlink:href="#glyph-3-5" x="12.201172" y="192.800781"/>
<use xlink:href="#glyph-3-6" x="12.201172" y="189.800781"/>
<use xlink:href="#glyph-3-3" x="12.201172" y="186.800781"/>
<use xlink:href="#glyph-3-4" x="12.201172" y="179.800781"/>
<use xlink:href="#glyph-3-7" x="12.201172" y="172.800781"/>
<use xlink:href="#glyph-3-8" x="12.201172" y="165.800781"/>
</g>
<path fill="none" stroke-width="0.75" stroke-linecap="round" stroke-linejoin="round" stroke="rgb(0%, 0%, 0%)" stroke-opacity="1" stroke-miterlimit="10" d="M 59.039062 322.558594 L 59.039062 59.039062 "/>
<path fill="none" stroke-width="0.75" stroke-linecap="round" stroke-linejoin="round" stroke="rgb(0%, 0%, 0%)" stroke-opacity="1" stroke-miterlimit="10" d="M 59.039062 322.558594 L 51.839844 322.558594 "/>
<path fill="none" stroke-width="0.75" stroke-linecap="round" stroke-linejoin="round" stroke="rgb(0%, 0%, 0%)" stroke-opacity="1" stroke-miterlimit="10" d="M 59.039062 269.855469 L 51.839844 269.855469 "/>
<path fill="none" stroke-width="0.75" stroke-linecap="round" stroke-linejoin="round" stroke="rgb(0%, 0%, 0%)" stroke-opacity="1" stroke-miterlimit="10" d="M 59.039062 217.152344 L 51.839844 217.152344 "/>
<path fill="none" stroke-width="0.75" stroke-linecap="round" stroke-linejoin="round" stroke="rgb(0%, 0%, 0%)" stroke-opacity="1" stroke-miterlimit="10" d="M 59.039062 164.449219 L 51.839844 164.449219 "/>
<path fill="none" stroke-width="0.75" stroke-linecap="round" stroke-linejoin="round" stroke="rgb(0%, 0%, 0%)" stroke-opacity="1" stroke-miterlimit="10" d="M 59.039062 111.742188 L 51.839844 111.742188 "/>
<path fill="none" stroke-width="0.75" stroke-linecap="round" stroke-linejoin="round" stroke="rgb(0%, 0%, 0%)" stroke-opacity="1" stroke-miterlimit="10" d="M 59.039062 59.039062 L 51.839844 59.039062 "/>
<g fill="rgb(0%, 0%, 0%)" fill-opacity="1">
<use xlink:href="#glyph-0-8" x="27.640625" y="326.298828"/>
<use xlink:href="#glyph-0-9" x="34.640625" y="326.298828"/>
<use xlink:href="#glyph-0-8" x="37.640625" y="326.298828"/>
</g>
<g fill="rgb(0%, 0%, 0%)" fill-opacity="1">
<use xlink:href="#glyph-0-8" x="27.640625" y="273.595703"/>
<use xlink:href="#glyph-0-9" x="34.640625" y="273.595703"/>
<use xlink:href="#glyph-0-2" x="37.640625" y="273.595703"/>
</g>
<g fill="rgb(0%, 0%, 0%)" fill-opacity="1">
<use xlink:href="#glyph-0-8" x="27.640625" y="220.892578"/>
<use xlink:href="#glyph-0-9" x="34.640625" y="220.892578"/>
<use xlink:href="#glyph-0-4" x="37.640625" y="220.892578"/>
</g>
<g fill="rgb(0%, 0%, 0%)" fill-opacity="1">
<use xlink:href="#glyph-0-8" x="27.640625" y="168.189453"/>
<use xlink:href="#glyph-0-9" x="34.640625" y="168.189453"/>
<use xlink:href="#glyph-0-6" x="37.640625" y="168.189453"/>
</g>
<g fill="rgb(0%, 0%, 0%)" fill-opacity="1">
<use xlink:href="#glyph-0-8" x="27.640625" y="115.482422"/>
<use xlink:href="#glyph-0-9" x="34.640625" y="115.482422"/>
<use xlink:href="#glyph-0-10" x="37.640625" y="115.482422"/>
</g>
<g fill="rgb(0%, 0%, 0%)" fill-opacity="1">
<use xlink:href="#glyph-0-1" x="27.640625" y="62.779297"/>
<use xlink:href="#glyph-0-9" x="34.640625" y="62.779297"/>
<use xlink:href="#glyph-0-8" x="37.640625" y="62.779297"/>
</g>
</svg>
